<?xml version="1.0" standalone="no"?>
<!DOCTYPE svg PUBLIC "-//W3C//DTD SVG 20010904//EN"
 "http://www.w3.org/TR/2001/REC-SVG-20010904/DTD/svg10.dtd">
<svg version="1.0" xmlns="http://www.w3.org/2000/svg"
 width="320.000000pt" height="320.000000pt" viewBox="0 0 320.000000 320.000000"
 preserveAspectRatio="xMidYMid meet">
<metadata>
Created by potrace 1.11, written by Peter Selinger 2001-2013
</metadata>
<g transform="translate(0.000000,320.000000) scale(0.100000,-0.100000)"
fill="#000000" stroke="none">
<path d="M1595 2407 c-166 -50 -275 -216 -330 -502 -23 -122 -27 -500 -6 -625
47 -283 142 -461 278 -523 73 -33 190 -31 263 6 66 33 106 68 150 133 36 52
87 167 96 217 2 17 7 33 9 37 6 10 25 125 32 200 4 36 7 142 7 235 1 288 -27
451 -104 610 -43 90 -110 163 -178 196 -53 26 -159 34 -217 16z m144 -191 c64
-33 113 -142 145 -321 19 -103 26 -393 12 -535 -19 -213 -72 -364 -145 -418
-41 -30 -112 -32 -149 -5 -64 48 -119 154 -137 269 -5 27 -10 56 -11 64 -17
85 -23 398 -11 523 36 346 144 501 296 423z"/>
<path d="M2620 2406 c-87 -18 -150 -54 -226 -130 -53 -53 -81 -92 -113 -156
-42 -86 -82 -225 -97 -335 -10 -80 -11 -363 -1 -449 13 -110 53 -252 94 -334
59 -120 180 -229 273 -247 12 -2 30 -7 41 -10 10 -4 47 -7 82 -7 117 -1 228
29 222 61 -2 9 -6 42 -10 72 -10 83 -13 85 -80 64 -98 -30 -199 -11 -272 52
-69 61 -131 204 -148 343 -4 30 -9 64 -11 75 -9 43 -4 306 6 376 35 227 107
366 222 423 60 30 138 34 203 11 22 -8 43 -15 46 -15 6 0 24 59 34 113 3 10 7
27 10 37 15 46 -156 81 -275 56z"/>
<path d="M518 2405 c-2 -2 -24 -6 -51 -9 -26 -4 -57 -10 -70 -15 l-22 -9 0
-800 c0 -572 3 -804 11 -812 18 -18 248 -20 329 -3 204 43 345 199 409 454 31
122 39 201 40 384 1 198 -9 286 -45 410 -81 273 -229 394 -491 401 -58 1 -108
1 -110 -1z m225 -189 c121 -50 197 -197 224 -431 12 -110 6 -356 -11 -450 -5
-27 -19 -98 -22 -110 -6 -27 -49 -133 -62 -155 -25 -40 -85 -100 -117 -117
-46 -24 -116 -39 -156 -33 l-36 5 0 652 c0 587 2 653 16 656 31 8 130 -2 164
-17z"/>
</g>
</svg>
